<?xml version="1.0" encoding="UTF-8"?>
<svg width="124px" height="100px" viewBox="0 0 124 100" version="1.1" xmlns="http://www.w3.org/2000/svg" xmlns:xlink="http://www.w3.org/1999/xlink">
    <!-- Generator: Sketch 48.2 (47327) - http://www.bohemiancoding.com/sketch -->
    <title>Logo/Stroke</title>
    <desc>Created with Sketch.</desc>
    <defs>
        <path d="M84.8442709,53.666244 C86.979464,50.5770803 88.5938134,46.6716969 89.6295215,42.9707228 C90.4758924,39.9363073 90.9057212,36.8040295 90.9057212,33.6608021 C90.9057212,28.0409059 89.4900098,22.4360653 86.814043,17.4512475 C82.5881678,9.60994555 75.6617451,3.93119504 67.3076529,1.45794796 C50.0434148,-3.64389406 31.9660229,6.672708 27.0113653,24.4528498 C24.2543488,34.3451538 26.0088743,45.2651423 31.8251826,53.666244 L1.0133054,53.666244 C0.45839305,53.666244 0.0085477093,54.1137901 0.0085477093,54.6597283 L0.0085477093,89.1092253 C0.0085477093,89.6579115 0.455162054,90.1027096 1.01724392,90.1027096 L25.739816,90.1027096 C25.7471238,90.3723442 25.7976137,90.6433474 25.9078944,90.9027167 C27.1276251,93.7763096 30.88979,92.8907585 32.3088231,92.5540574 L36.9824643,91.4084526 L40.4363749,90.5564348 L42.2732786,90.1027096 L115.768496,90.1027096 C116.318965,90.1027096 116.765207,89.6551635 116.765207,89.1092253 L116.765207,54.6597283 C116.765207,54.111042 116.313963,53.666244 115.774874,53.666244 L84.8442709,53.666244 Z M35.6876631,53.2017809 C31.2671359,47.6804313 28.922011,40.8533386 28.922011,33.9010096 C28.922011,31.1170668 29.2986925,28.3112248 30.0620207,25.5573935 C34.5376882,9.52029548 50.8466035,0.218587006 66.4214216,4.82222097 C73.9670104,7.05868237 80.2151406,12.1824236 84.0125156,19.2497238 C86.4639351,23.8054531 87.7095751,28.815592 87.7095751,33.8832164 C87.7095751,36.6828993 87.3302362,39.501744 86.5596003,42.2672093 C85.4215836,46.3363645 83.5268821,49.9990149 80.94193,53.2017809 L35.6876631,53.2017809 L35.6876631,53.2017809 Z" id="path-1"></path>
    </defs>
    <g id="01_Mixins&amp;Logo" stroke="none" stroke-width="1" fill="none" fill-rule="evenodd">
        <g id="Logo/Stroke">
            <g id="Shop_Rite_logo-Copy" transform="translate(3.000000, 3.000000)">
                <g id="Fill-2">
                    <use fill="#ED1B2E" fill-rule="evenodd" xlink:href="#path-1"></use>
                    <path stroke="#FFFFFF" stroke-width="2" d="M86.6704598,52.666244 L115.774874,52.666244 C116.86845,52.666244 117.765207,53.5609517 117.765207,54.6597283 L117.765207,89.1092253 C117.765207,90.2086962 116.870001,91.1027096 115.768496,91.1027096 L42.3949529,91.1027096 L40.6758775,91.5273305 L37.2205369,92.3797 L32.5396882,93.5270432 C31.0968017,93.869404 30.1137496,94.0164699 28.9584833,93.9294205 C27.1238125,93.791178 25.697702,92.9668902 24.9876257,91.2940037 C24.9607976,91.2309067 24.9362202,91.1671243 24.9138547,91.1027096 L1.01724392,91.1027096 C-0.0927803356,91.1027096 -0.991452291,90.2145527 -0.991452291,89.1092253 L-0.991452291,54.6597283 C-0.991452291,53.5584468 -0.0908460413,52.666244 1.0133054,52.666244 L29.9795209,52.666244 C24.8354389,44.2840753 23.371262,33.7889179 26.0480675,24.1844149 C31.1511899,5.87149659 49.7860889,-4.76268849 67.591526,0.499086107 C76.2027711,3.04846386 83.3429642,8.90265063 87.6951159,16.9782669 C90.449639,22.1094202 91.9057212,27.8768627 91.9057212,33.6608021 C91.9057212,36.8936792 91.4638361,40.1163817 90.5925237,43.2402165 C89.6343705,46.6640576 88.290364,49.9366506 86.6704598,52.666244 Z M36.172943,52.2017809 L80.4590886,52.2017809 C82.8200143,49.178883 84.5442701,45.7604776 85.5963028,41.9987728 C86.3372077,39.3399989 86.7095751,36.6122585 86.7095751,33.8832164 C86.7095751,28.9510593 85.4908142,24.1073722 83.1316237,19.7230413 C79.4600585,12.8898861 73.4262904,7.94141661 66.1379631,5.78120549 C51.1044416,1.33756897 35.3524465,10.3209737 31.0256851,25.8245094 C30.2913833,28.4736232 29.922011,31.1889428 29.922011,33.9010096 C29.922011,40.518922 32.1151308,46.9634303 36.1729575,52.2017817 Z"></path>
                </g>
                <path d="M80.94193,53.2017809 C83.5268821,49.9990149 85.4215836,46.3363645 86.5596003,42.2672093 C87.3302362,39.501744 87.7095751,36.6828993 87.7095751,33.8832164 C87.7095751,28.815592 86.4639351,23.8054531 84.0125156,19.2497238 C80.2151406,12.1824236 73.9670104,7.05868237 66.4214216,4.82222097 C50.8466035,0.218587006 34.5376882,9.52029548 30.0620207,25.5573935 C29.2986925,28.3112248 28.922011,31.1170668 28.922011,33.9010096 C28.922011,40.8533386 31.2671359,47.6804313 35.6876631,53.2017809 L80.94193,53.2017809" id="Fill-3" fill="#F4B827"></path>
                <path d="M86.1091768,24.1120427 C86.0872536,24.0490823 86.0640016,23.988175 86.043407,23.9245303 L72.0204903,23.8348802 C72.0032174,23.3886829 71.9680073,22.9486448 71.9115383,22.5147658 L83.9155218,19.0670019 C83.8617101,18.971877 83.8039124,18.8781208 83.7520938,18.7802585 L71.6497878,21.0783115 C71.5209056,20.5397267 71.3634567,20.0141446 71.1781055,19.4995121 L80.7346555,14.3333411 C80.6648996,14.2477971 80.5891647,14.1656749 80.5194089,14.0828683 L70.636003,18.2074561 C70.4134486,17.7434656 70.1702997,17.2883718 69.9012415,16.8551771 L77.173786,10.6912213 C77.0860929,10.6152582 76.9977355,10.5372421 76.9100425,10.4619634 L69.1266195,15.7307873 C68.7751829,15.2695342 68.4018231,14.827443 67.9965749,14.4147789 L73.1179822,7.7498776 C73.0057085,7.68075807 72.8914418,7.62258818 72.7771751,7.55415301 L67.0273009,13.5175938 C66.5589402,13.1213542 66.0580269,12.7709661 65.5431623,12.443846 L68.7366511,5.61470026 C68.5958107,5.55995212 68.4562991,5.50588833 68.31413,5.45319325 L64.3446906,11.7677065 C63.8690222,11.5316052 63.3794026,11.3194561 62.8758319,11.140156 L64.5466504,4.33633126 C64.3892015,4.30006062 64.2324169,4.26584303 64.0762967,4.23436285 L61.5757159,10.7487068 C60.9352909,10.5919903 60.279586,10.4756505 59.6092656,10.4161119 L59.7029377,3.67593186 C59.5441602,3.67045704 59.3827252,3.65745436 59.2232833,3.65129519 L58.2772612,10.359995 C57.7251936,10.3654698 57.1830911,10.4120058 56.6482963,10.4831783 L55.3382152,3.80185257 C55.1794376,3.82033007 55.0199957,3.83059534 54.8625468,3.84975719 L55.3216067,10.7281762 C54.6957971,10.879418 54.0872605,11.0737739 53.4986541,11.3091909 L50.6346786,4.69698461 C50.473908,4.74283617 50.3184521,4.79553126 50.1596746,4.84412023 L52.2297621,11.8929429 C51.7800031,12.1263068 51.3435308,12.3822543 50.9256601,12.6648916 L46.3795724,6.26620309 C46.2294313,6.33532261 46.0819475,6.40717954 45.933135,6.47972082 L49.7677132,13.5367557 C49.3571502,13.883722 48.9731609,14.2607998 48.6064445,14.6536177 L42.1643267,8.64158788 C42.0434166,8.72644749 41.917856,8.80446359 41.7956172,8.8906919 L47.6703876,15.7677423 C47.3827278,16.1448201 47.1156626,16.5410597 46.8645416,16.9516707 L38.2347477,11.8149268 C38.1377539,11.9093673 38.0440818,12.0085983 37.9464236,12.1044075 L46.1543607,18.2779443 C45.9729955,18.6570752 45.8095675,19.04784 45.6640768,19.4461327 L34.9176915,15.5973387 C34.8426209,15.697254 34.7682147,15.7958007 34.6924798,15.8964004 L45.2315906,20.8531598 C45.1186526,21.3000415 45.0276378,21.754451 44.9558889,22.2198102 L31.9015818,20.6362203 C31.8530849,20.7395574 31.804588,20.8401571 31.7580841,20.9414412 L44.8077408,23.7315431 C44.79844,23.9546418 44.7758524,24.1743187 44.7758524,24.398786 C44.7758524,24.5233381 44.7891393,24.6424153 44.792461,24.7614925 L29.9743276,25.9166781 C29.9563904,25.9857977 29.9411106,26.0569702 29.922509,26.1281428 L44.9240005,26.3601381 C44.9764835,26.7563777 45.043582,27.1450895 45.1259603,27.5296951 L28.9731653,32.3988576 L28.9731653,32.4419717 L45.5664186,29.0749613 C45.6693915,29.3788135 45.7723644,29.6812969 45.8959319,29.9721464 L30.6619209,38.0495497 L46.6081058,31.4099693 C46.7927927,31.743933 46.9881091,32.0696844 47.2000339,32.3858549 L33.8972632,43.5763741 L48.1719653,33.654643 C48.395184,33.9188027 48.6217244,34.176119 48.8648733,34.4218012 L38.3549935,47.7769249 L50.0115264,35.4483288 C50.3164591,35.6960641 50.6313569,35.9349029 50.9575485,36.1538954 L43.3827287,51.4416283 L52.2716156,36.9299503 C52.6190661,37.108566 52.967181,37.279654 53.3285827,37.4261052 L49.5145991,53.194253 L49.5557883,53.194253 L54.8386305,37.9407377 C55.2000322,38.0433905 55.5654199,38.1316719 55.9374511,38.2028444 L55.4298943,53.194253 L55.5840215,53.194253 L57.5092827,38.3992534 C57.8075719,38.4197839 58.1071899,38.4464736 58.4107938,38.4464736 C58.5549559,38.4464736 58.697125,38.4293649 58.8399583,38.4245744 L61.6866609,53.194253 L61.8235152,53.194253 L60.5194132,38.262383 C60.8814792,38.2028444 61.2382305,38.1316719 61.5909958,38.0474966 L67.8105593,52.9725231 L63.187408,37.542445 C63.6238802,37.3747789 64.0483944,37.1845291 64.4629433,36.9744331 L73.7557498,50.339822 L65.7477795,36.2264367 C66.1350905,35.9704891 66.509779,35.6994859 66.8671946,35.4065833 L78.5270493,46.3692134 L67.9653508,34.4142734 C68.2722765,34.1035777 68.5665797,33.7778263 68.8436101,33.4377035 L82.8206873,41.823065 L69.7132329,32.2613029 C69.9915919,31.8376892 70.2407199,31.3983354 70.4732393,30.9452945 L85.6760263,36.0984629 L71.0651675,29.6149148 C71.2186303,29.2227813 71.3568133,28.8231199 71.4750661,28.4172993 L87.5082797,30.4217655 C87.5082797,30.4190281 87.5056223,30.4176594 87.5056223,30.4162907 L71.8245096,26.8761392 C71.9082166,26.3936713 71.9640213,25.9009381 71.998567,25.4034144 L86.1091768,24.1120427" id="Fill-4" fill="#FFFFFE"></path>
                <path d="M73.1525279,38.6463043 L52.1546916,43.2779967 C51.0326191,43.5462626 50.3031723,42.9796194 50.0394288,42.2343604 C49.7976085,41.5281094 50.0287993,40.4728391 51.0625144,40.0683872 L72.6589223,32.1340135 L72.9492395,19.4796659 L58.7363211,22.993812 C59.6750354,22.3491527 60.2516837,21.1809643 60.0058774,20.0141446 C59.6896509,18.4681941 58.0600216,17.5189983 56.5652536,17.8515932 C55.0671639,18.180082 54.265304,19.666494 54.5861808,21.2062853 C54.8386305,22.4326436 55.7268549,23.3140886 56.8256754,23.466699 L49.9045675,25.1768939 L51.7009464,23.1601095 L45.9537296,16.8969226 L43.548814,19.5987431 L49.1983727,25.3527723 L43.8318234,26.6804147 L42.4446787,24.2044302 L37.3697753,25.3233452 L38.6227231,27.5618597 L40.6403277,27.1190841 L47.6989543,39.7296331 C46.6864981,40.8047496 46.647302,42.5594274 47.2505239,43.9404492 C47.8590605,45.3228396 49.588341,46.5560414 52.4383653,45.8922203 L73.685994,41.2064641 L73.1525279,38.6463043" id="Fill-5" fill="#F4B827"></path>
                <path d="M58.5251003,9.9050146 L58.3729264,8.83183765 L63.9500718,9.60173333 L61.4594562,15.819753 L61.2795156,15.7828406 L60.8781575,16.7846889 L58.7197126,16.3494412 L57.7909634,9.80430144 L58.5251003,9.9050146 Z M63.9542448,16.2000319 C64.2887303,15.3532459 65.0119645,14.6856091 65.9484106,14.4777393 C67.4411855,14.1540409 68.9133659,15.1258204 69.2349071,16.6738239 C69.4255748,17.5969544 69.1611748,18.5088303 68.5991985,19.1641242 C68.2664089,20.0151996 67.5432737,20.6854995 66.6074372,20.8921679 C65.1073544,21.2199723 63.6358384,20.2372433 63.3189476,18.6926615 C63.124552,17.7708521 63.389271,16.8561491 63.9542448,16.2000319 Z M50.1616107,13.1851942 C50.4642193,12.383014 51.1173031,11.7596879 52.025145,11.5617166 C53.519913,11.2304904 55.1462206,12.1776332 55.4617827,13.7235837 C55.6442009,14.6008989 55.3662824,15.4810895 54.8174675,16.1375743 C54.4565468,17.038888 53.6539821,17.7617196 52.6861646,17.9761452 C51.1913966,18.3053184 49.8653713,17.2870031 49.5471518,15.7431056 C49.3487845,14.7783702 49.5874992,13.8364288 50.1616107,13.1851942 Z M71.6258715,40.943673 C72.5526277,41.2386286 73.3079838,42.0105774 73.5265521,43.0651633 C73.8447716,44.6076921 72.8914418,46.1221624 71.4006598,46.4547574 C69.8979197,46.7818775 68.4237463,45.8025702 68.1015408,44.2566197 C67.8882872,43.212299 68.2689548,42.1837183 68.9970729,41.5226346 L54.9303096,44.6275383 C55.8331495,44.9423401 56.5805335,45.6848617 56.7844863,46.6764873 C57.1007127,48.2197004 55.9979061,49.7711258 54.4998164,50.1009833 C53.0023911,50.4342626 51.6823449,49.4145785 51.3608037,47.8699967 C51.1482144,46.8421004 51.4425177,45.8463687 52.1008799,45.1941815 C49.782993,45.4350733 48.3480158,44.3277923 47.8085706,43.1000653 C47.2000339,41.7217809 47.2412231,39.9636814 48.2543436,38.8933553 L41.1943883,26.2814376 L39.175455,26.7221601 L37.925829,24.4850144 L42.9987394,23.365415 L45.1598417,27.2148933 L73.2209551,20.6232177 L73.2176334,31.2943139 L50.8054143,39.700206 C49.7697062,40.1053422 49.5418371,41.1585595 49.782993,41.8613887 C50.0493939,42.6066477 51.0326191,43.5462626 52.1546916,43.2779967 L73.684001,38.2829136 L74.2400547,40.3647115 L71.6258715,40.943673 Z M46.4526499,16.0681727 L52.1978737,22.3327282 L49.9816311,24.8217154 L44.0477343,18.7747837 L46.4526499,16.0681727 Z M58.2187992,22.610575 C56.7207095,22.9445387 55.4026563,21.9282764 55.0797864,20.3809571 C54.7615669,18.8363753 55.5614339,17.3527008 57.062181,17.0269494 C58.558942,16.6902484 60.1859139,17.6421816 60.5087838,19.1860791 C60.8270033,20.7299765 59.7182176,22.2814019 58.2187992,22.610575 Z" id="Fill-14" fill="#110B00"></path>
                <g id="Group-2" transform="translate(6.142308, 57.621208)" fill="#FFFFFE">
                    <path d="M43.2327789,14.4529396 C43.0912742,15.3905015 42.9530913,16.1227578 42.5764097,16.9255024 C42.1592034,17.7816264 41.1905937,19.4466541 40.2067042,19.6745432 C39.2028845,19.9044854 39.1019046,19.3214177 39.1470798,18.3482696 C39.1975697,17.2882088 39.5642861,16.276737 39.96887,15.3946076 C40.2465647,14.8115399 40.609295,14.2722708 40.9919557,13.7699566 C41.1009076,13.6317176 41.3593364,13.200576 41.6237443,12.9583155 C41.8815087,13.6529325 42.4701151,14.2722708 43.2327789,14.4529396 Z M29.4144793,9.1772723 C29.0005947,9.52834473 28.5654511,9.86162401 28.136951,10.1853224 C29.4503538,7.4992419 31.0979203,4.71461479 33.4490242,3.13307798 C33.759936,2.95172478 34.1439252,2.8011674 34.1678415,2.96609616 C34.1924222,3.27610749 33.8947972,3.85096293 33.8947972,3.85096293 C33.573256,4.53736769 32.9866426,5.23198468 32.570765,5.84037335 C31.6692538,7.12763892 30.5790697,8.18427797 29.4144793,9.1772723 Z M43.2527092,12.3465051 C43.0932673,11.9290505 42.9796649,11.9577933 42.9172168,12.4156246 C42.9976021,12.7208455 43.1557154,12.9275197 43.3802627,13.0602839 C43.3835844,13.0411221 43.3875705,13.0219602 43.3762767,13.0082732 C43.3709619,12.7885963 43.3277798,12.5627602 43.2527092,12.3465051 Z M82.7624166,7.09136828 C82.8016128,7.21523594 82.9776632,7.16596262 83.0168594,7.12011105 C83.5476681,6.62464041 83.9721822,6.00735517 84.4830607,5.51393759 C84.7461398,5.23609079 85.0444291,5.00888602 85.3188021,4.82890152 C85.505482,4.6988747 85.6523014,4.64344221 85.7406588,4.61675249 C85.8549255,4.59553759 85.9638775,4.57432268 86.0847876,4.51957455 C86.6043025,4.26773312 87.2314408,3.56695696 86.5817149,2.7813212 C85.9499263,2.01005682 84.9706872,2.36797277 84.5747398,2.8210136 C84.5747398,2.8210136 84.0678474,3.32332776 83.6692426,3.89544579 C83.543682,4.06311196 83.3875618,4.27868275 83.2467215,4.57432268 C82.9118934,5.25046218 82.5000018,6.3173665 82.7624166,7.09136828 Z M71.466621,1.22989587 C68.9281728,1.19773134 66.3531858,1.53443238 64.1342858,2.46309765 C62.988297,2.95172478 60.1548813,4.22461896 60.5189403,6.0593659 C60.6863543,6.95381359 61.9406307,6.77040733 62.0382889,6.07168423 C62.0382889,6.07168423 62.0382889,6.07168423 62.042275,6.07442164 C62.098744,5.87116918 63.3124956,5.36748632 63.461308,5.26757097 C64.2206502,4.8206893 65.117511,4.58664102 65.97584,4.34232745 C66.2548633,4.26020525 66.5504952,4.20408841 66.8434697,4.14249675 C66.6654263,4.41350003 66.4913688,4.69134683 66.3206331,4.93086993 C65.2317777,6.45971165 64.229951,8.06109466 63.3623212,9.77402699 C63.1045567,10.283869 62.8594148,10.8087668 62.6195876,11.3452985 C61.4324096,11.3808848 60.3309317,11.6169862 59.4360639,12.1630988 C58.7903242,12.5702881 58.7391699,13.4907411 59.4745957,14.1100794 C59.9735161,14.5289027 60.6670884,14.6630356 61.3646468,14.6630356 C60.744152,16.6284937 60.300372,18.699342 60.1449161,20.8133045 C60.047258,22.0964639 61.7805245,22.0218696 62.1239889,21.2991942 C63.2201521,19.0654702 63.9349834,16.6065945 64.7335217,14.1963078 C65.0557272,14.181252 65.3852405,14.1716711 65.7047887,14.1586684 C67.2925645,14.4495179 68.8643961,14.9716782 70.4209478,15.6430273 C71.9097367,16.2822118 73.3393992,17.1595507 74.7258796,18.127224 C76.1190034,19.1072156 77.4264271,20.3636854 78.9225238,21.0336657 C79.9608893,21.4901283 81.1985572,20.4355423 80.4093197,19.2899376 C79.302527,17.6598118 77.1088719,16.5299471 75.5676001,15.5205283 C74.2502112,14.6705635 72.8557588,13.9622595 71.462635,13.3764544 C73.5573032,12.9302571 75.5569706,12.2767012 77.4038395,11.3056061 C78.9843075,10.4857528 81.7047852,8.657165 81.5499937,6.33242223 C81.2656556,1.86360555 74.0748251,1.26548216 71.466621,1.22989587 Z M24.5873752,12.4375239 C23.9994332,12.7557474 23.3530291,13.052756 22.8076048,13.1122946 C22.3618318,13.1684115 22.210362,13.8356544 22.8149126,13.9595221 C23.2141817,14.0436973 23.6034857,14.0505408 23.9768456,14.0217981 C23.8698866,14.3051197 23.7669137,14.5857039 23.6692555,14.875869 C23.3204763,15.8688633 22.9205428,16.8584359 22.6893521,17.9184967 C22.4707838,18.9354434 22.0808154,20.1426398 22.2462364,21.2608705 C22.3319364,21.913742 22.9218715,22.2223846 23.4334144,22.3284592 C25.1553871,22.6897969 25.9333308,20.5717283 26.7790373,19.5821557 C28.3223022,17.7850481 31.2008932,15.771001 32.4412184,15.5533772 C32.45982,15.5533772 32.4750998,15.5396902 32.4877223,15.5246344 C32.2684897,16.3834958 32.105726,17.2895775 32.0632082,18.1942905 C31.9316686,20.5142428 33.2105257,22.7411232 35.5217692,22.0923578 C36.8717107,21.7139113 36.5747502,20.8263071 35.5204405,20.683962 C33.7672437,20.4492294 35.3875722,15.5848574 35.5337273,14.5590142 C35.6347072,13.8199143 35.1384442,13.0377003 34.4083331,12.764644 C33.709446,12.5025373 33.0072372,12.7365856 32.4770929,12.852241 C31.5948476,13.0411221 30.0489253,13.869872 29.1560506,14.3386529 C28.1515665,14.875869 27.5583097,15.3816049 26.6754,16.091962 C26.3013759,16.3718618 25.9585757,16.6839262 25.6230834,17.0000967 C25.704133,16.7284091 25.785847,16.4676711 25.8609176,16.2076174 C26.1698363,15.1571376 26.4960279,14.1162386 26.8607513,13.1088729 C28.6199271,12.2500115 30.1957447,11.0304967 31.6646034,9.76649912 C33.0989163,8.5394565 34.4249416,7.12011105 35.4320831,5.4386589 C36.0359693,4.4223966 37.0955938,1.53443238 34.9677085,0.744006152 C33.3214707,0.13561748 31.5370499,1.93135637 30.5790697,2.84907202 C29.0039164,4.35806754 27.7509686,6.27493669 26.6215884,8.20412417 C25.8350083,9.55298139 25.1733243,10.9716425 24.5873752,12.4375239 Z M21.0344778,18.1792347 C20.5940195,15.346703 17.1660183,14.5090565 15.1849524,14.3386529 C13.5845542,14.1963078 11.9868133,14.2681647 10.415646,14.2797987 C9.9506071,14.2797987 5.68553578,14.3584991 6.04361575,13.200576 C6.51396941,11.6395698 7.92635908,10.445376 9.09825718,9.55640315 C10.6136197,8.40395487 11.8446442,7.6381653 13.6137852,6.88948453 C15.5025076,6.10316441 17.922703,5.41470659 20.1143651,5.53994295 C20.9461204,5.58853192 22.3080201,5.58716322 22.656135,6.78751612 C22.9411374,7.79214444 22.3379155,9.18480017 21.7885052,9.7781331 L21.799799,9.7781331 C21.4908803,10.2236461 21.9559192,11.0838762 22.656135,10.7608622 C24.4392271,9.9369027 26.3325999,6.46381776 23.9901324,4.25267738 C21.7174207,2.10928782 17.531406,2.76079065 15.3098486,3.23230898 C12.0658699,3.92008245 8.68503687,5.6213808 6.00242659,7.81062193 C4.05457782,9.38257781 0.560806775,13.1718332 4.03929797,16.142604 C5.3580155,17.2745218 7.32313715,17.4599811 8.74416325,17.4859864 C10.4601569,17.5030952 12.1661854,17.4688776 13.8954659,17.5030952 C14.9012787,17.5195197 16.5495095,17.4497158 17.4151463,18.4693998 C17.3885726,18.4659781 17.5513362,18.7561432 17.5387138,18.6842863 C17.6450084,19.1482767 17.6097983,18.9067006 17.5214409,19.3487918 C17.313502,20.3718976 16.0067426,21.6707972 15.0268392,22.48586 C13.4942037,23.7847596 11.7562868,24.8023906 9.90941794,25.6290875 C8.92486409,26.0670726 7.91240791,26.4106171 6.86607032,26.704204 C5.5187861,26.9745229 4.81325561,27.1237116 3.60083269,27.0244806 C2.90061693,26.9642576 1.69749479,26.7233658 1.24906439,25.8843506 C1.1560566,25.7221593 0.999272051,25.5599679 0.822557258,25.5585992 C-0.525391296,25.5189068 -0.0331143725,27.4877867 1.09427286,27.99626 C3.4433838,29.8152669 7.29789218,28.7497313 9.22381769,28.1899316 C13.0039198,27.0819661 16.8717151,25.1815214 19.5171222,22.2702893 C20.4266055,21.2725045 21.2962283,19.8565808 21.0344778,18.1792347 Z M85.5938394,25.190418 C83.9755039,23.8189772 81.5712526,23.6300961 79.7828458,23.2906577 C76.9148843,22.7486511 74.0748251,22.6548949 71.2713047,22.594672 C65.2882467,22.4666982 59.4154694,23.155156 53.6994766,24.0379697 C51.3656455,24.3999918 49.0597167,24.844136 46.7630888,25.3190761 C47.2719742,23.1832144 47.7556147,20.9604401 48.3455498,19.1188496 C48.6717414,18.1162744 49.029157,17.12328 49.3686355,16.1282326 C49.6775542,15.6642422 49.9997597,15.2235197 50.3631544,14.8265957 C51.1384408,13.9759465 52.0472597,13.2265814 53.1434229,12.8132329 C55.1769717,12.05634 54.8753607,14.7321551 54.5106373,15.7272025 C53.6469936,18.0971125 51.4706114,19.7142356 49.0929338,20.5217706 C48.192087,20.833835 48.2970529,22.1525808 49.7732193,22.0430845 C53.260347,21.7850839 55.8247045,19.9120133 57.1500654,16.698982 C57.6881819,15.3816049 57.8124137,13.8726094 57.0842956,12.317078 C56.2485542,10.5151799 54.3664753,10.2633385 53.0211841,10.6000395 C51.9210348,10.8737802 50.9398027,11.37541 50.0661938,12.0241754 C50.0661938,12.0207537 50.0661938,12.0132258 50.0635365,12.009804 C49.8104224,11.6621534 49.3141595,11.6874744 49.0431082,11.7668592 C48.5840483,11.910573 46.7630888,12.8310261 45.2118518,13.1444592 C45.1972363,13.0377003 45.1806277,12.9275197 45.1440889,12.8132329 C44.7793656,11.2056908 43.0766587,10.058033 41.9738521,11.0366559 C41.823711,11.1673671 41.7187451,11.3213462 41.6363667,11.4951715 C40.7919889,11.5300735 39.7223994,12.1138255 39.4354039,12.3465051 C37.7738863,13.6508794 36.6325479,15.8674946 36.342895,18.228508 C36.089781,20.3369957 37.339407,22.1710583 39.4466977,22.1922732 C42.0914405,22.2175942 43.5749147,20.4937122 44.6039795,18.2025027 C45.116851,17.0651101 45.4065038,15.7491018 45.3467131,14.377661 C46.1339575,14.2243662 46.8720407,13.9595221 47.6307185,13.7138398 C47.5044937,13.9533629 47.394213,14.1908329 47.2899114,14.4111942 C46.8228795,15.3200133 46.3996941,16.2657873 46.01039,17.2300389 C44.7215679,19.816204 43.902435,23.0655059 43.0600502,26.1197676 C40.9839836,26.5851268 38.9218681,27.0634886 36.8657317,27.5548532 C34.1439252,28.2001968 31.4300909,28.8674398 28.750138,29.6058553 C27.4121546,29.9747208 26.093437,30.3867006 24.7295443,30.6652317 C24.7295443,30.6652317 23.8094315,30.8178421 23.405512,30.7925211 C23.156384,30.7774654 22.9763475,30.6488073 22.9763475,30.5406797 C23.1298104,30.3066314 23.0275018,30.1068007 22.6428482,30.1068007 C21.8356735,30.0896919 21.4496911,30.4695071 21.2676616,30.8636937 C21.1141988,31.1908138 21.0238484,31.6958654 21.1852833,32.080471 C22.0921092,34.212911 25.2749685,33.3862141 26.5445248,33.0857837 C29.221156,32.463708 31.8718779,31.7629319 34.54253,31.1182725 C37.0789852,30.5153587 39.6021536,29.8802803 42.1332941,29.2506767 C42.1233289,29.2787351 42.1140282,29.3067936 42.1047274,29.3382737 C41.5566458,30.9991953 43.5529915,31.5829474 44.5548182,30.9861927 C45.0218501,30.7056085 45.2437401,30.1766046 45.4722736,29.6633408 C45.5453511,29.5682159 45.8695497,28.67719 45.9745156,28.3220114 C47.534389,27.9394588 49.0842974,27.5459566 50.6474925,27.1907781 C56.1694976,25.92199 61.8615741,25.0973462 67.6725677,24.6970004 C70.5757393,24.4964854 73.5612893,24.5122255 76.5687624,24.8208681 C77.9864668,24.9755316 79.4141364,25.2225825 80.8424702,25.5599679 C81.6875124,25.762536 82.9776632,25.8932472 83.6732286,26.6289253 C84.7414895,27.7539995 86.7524507,26.1738314 85.5938394,25.190418 Z M93.7732098,19.2605104 C89.8562533,19.3877998 91.3111609,13.0739709 91.7370036,11.0592395 C92.0419363,9.61115129 92.518269,8.26024101 93.0065599,6.91412119 C94.5066426,6.50556322 96.0791386,6.20650152 97.6283825,5.99435249 C98.5172712,5.87253788 99.5516507,5.71992745 100.490365,5.94576352 C101.261001,6.1387507 101.787824,6.17775875 102.406325,5.82258021 C102.764405,5.61179988 103.115178,4.97056233 102.801608,4.44361151 C102.247548,3.49236263 100.97932,3.32332776 100.140921,3.32332776 C98.4980053,3.31853729 96.9407893,3.54026725 95.3975244,3.87765264 C95.005563,3.97072447 94.6175876,4.07885205 94.2316053,4.17671434 C94.2860813,4.07063982 94.339893,3.95840614 94.396362,3.85438468 C94.8487784,2.98662671 95.5197632,1.96557396 95.3217894,0.802176048 C95.1822778,0.0281742615 94.2143325,0.128089611 93.9153789,0.466843709 C92.7840056,1.74795011 91.9449425,3.39518469 91.1676631,5.03215398 C91.1145158,5.04515666 91.0527321,5.05815935 90.9982561,5.07663684 C90.6036373,5.18476441 86.3099993,6.70128781 86.2302784,6.1387507 C86.1645086,5.71376829 85.6131053,5.67544459 85.4131385,5.84037335 C84.4332351,6.59042283 85.1919129,7.81609675 86.3770978,8.24586962 C87.4380509,8.62636917 88.7361739,8.32525442 89.8914634,7.94612357 C89.8735262,7.98513162 89.857582,8.03029883 89.8442952,8.07272864 C88.5548087,9.8575179 87.1364399,11.5088586 85.5705874,12.9925331 C84.9480996,13.585866 84.2950521,14.1292413 83.6313751,14.6705635 C83.3091696,14.9511477 82.9683625,15.2009361 82.6076251,15.4301939 C82.5491631,15.4657802 82.4913654,15.5027352 82.4515049,15.5321623 C81.8841574,14.1963078 82.6973112,11.9646368 83.2467215,10.91621 C83.2719664,10.8751489 83.2892393,10.8340878 83.3171417,10.7854988 C83.3304285,10.7471751 83.3543448,10.7054297 83.3809184,10.6725808 C83.5589619,10.3591477 83.4121425,10.0744574 83.1583641,9.87667975 C82.9683625,9.64536887 82.6674158,9.52834473 82.29007,9.72201626 C80.3521863,10.69448 79.2254634,13.5523328 79.5423542,16.1070177 C79.7316915,17.5783739 81.046423,18.4810338 82.2701397,18.4878773 C83.7489635,18.5029331 84.8451267,17.4688776 85.8217085,16.5703238 C86.6322049,15.8134309 87.3975261,15.0038428 88.1183364,14.144297 C87.8233689,15.6519238 87.8147324,17.2334607 88.5860327,18.8683769 C89.7725463,21.4039 92.8325025,21.3142499 93.9990859,20.7435006 C94.6381822,20.4355423 94.7026233,19.2310833 93.7732098,19.2605104 Z M95.9947672,16.5012043 C97.0889374,16.4950452 98.0323021,16.2726309 98.7790217,16.0632192 C100.430574,15.5917009 102.169156,14.6945158 103.126471,13.2395841 C103.832002,12.1589927 103.757596,10.4357951 102.262828,9.60430777 C100.861732,8.82962163 99.0308071,9.14579212 97.8489439,9.64331582 C96.3355743,10.2681289 95.0573816,11.2522267 94.1419192,12.6483042 C93.2629957,14.0019519 92.623235,16.4916234 94.1870945,18.2025027 C96.7853334,21.0583024 101.650305,19.9085915 103.320459,17.7214034 C103.852596,17.0295238 102.759091,16.4307161 102.214995,16.8502237 C100.821871,17.9314994 98.1339463,18.1217492 96.7388295,17.2649408 C96.2605037,16.9740914 96.1588595,16.8112156 95.9947672,16.5012043 Z M71.5782304,3.8215358 C72.5342176,3.86738737 79.6566209,4.86585651 77.9652079,6.97229108 C75.8526025,9.59062073 72.4040067,10.5350261 69.1201675,11.1420461 C68.004074,11.3528264 66.8806729,11.4951715 65.7492996,11.6210923 C65.7114321,11.6169862 65.6855228,11.61288 65.6542988,11.6074052 C66.2409122,10.0943036 66.9989256,8.6968574 67.719736,7.28503982 C68.2817687,6.21402939 69.1248179,5.08963952 69.4184567,3.8215358 C70.1359454,3.78937127 70.8627348,3.78389646 71.5782304,3.8215358 Z M95.9681936,15.0989677 C96.3867286,13.8322326 97.6376833,12.6660973 98.1698207,12.3068127 C98.7909799,11.8688276 99.4712654,11.435633 100.259174,11.3808848 C101.532052,11.2843912 101.164007,12.2767012 100.674388,12.9583155 C99.8991012,14.0149546 97.7074392,15.1215513 95.9681936,15.0989677 L95.9681936,15.0989677 Z" id="Fill-15"></path>
                    <path d="M101.836321,22.7527572 C101.836321,21.0890982 103.145073,19.8627399 104.692988,19.8627399 C106.226288,19.8627399 107.535705,21.0890982 107.535705,22.7527572 C107.535705,24.4307876 106.226288,25.6571459 104.692988,25.6571459 C103.145073,25.6571459 101.836321,24.4307876 101.836321,22.7527572 Z M104.692988,25.1739936 C105.965202,25.1739936 106.969686,24.147466 106.969686,22.7527572 C106.969686,21.380632 105.965202,20.3458922 104.692988,20.3458922 C103.406159,20.3458922 102.401675,21.380632 102.401675,22.7527572 C102.401675,24.147466 103.406159,25.1739936 104.692988,25.1739936 Z M104.097738,24.4307876 L103.607454,24.4307876 L103.607454,21.0890982 L104.841801,21.0890982 C105.608451,21.0890982 105.987789,21.380632 105.987789,22.0396627 C105.987789,22.6371018 105.623066,22.8978398 105.147398,22.9594314 L106.069503,24.4307876 L105.519429,24.4307876 L104.663093,22.982015 L104.097738,22.982015 L104.097738,24.4307876 Z M104.68568,22.5529265 C105.102222,22.5529265 105.474254,22.5221307 105.474254,22.0088669 C105.474254,21.5948341 105.10953,21.5181867 104.768059,21.5181867 L104.097738,21.5181867 L104.097738,22.5529265 L104.68568,22.5529265 L104.68568,22.5529265 Z" id="Fill-16"></path>
                </g>
            </g>
        </g>
    </g>
</svg>